<svg xmlns="http://www.w3.org/2000/svg" width="90" height="90" viewBox="0 0 90 90">
  <metadata><?xpacket begin="﻿" id="W5M0MpCehiHzreSzNTczkc9d"?>
<x:xmpmeta xmlns:x="adobe:ns:meta/" x:xmptk="Adobe XMP Core 5.6-c138 79.159824, 2016/09/14-01:09:01        ">
   <rdf:RDF xmlns:rdf="http://www.w3.org/1999/02/22-rdf-syntax-ns#">
      <rdf:Description rdf:about=""/>
   </rdf:RDF>
</x:xmpmeta>
                                                                                                    
                                                                                                    
                                                                                                    
                                                                                                    
                                                                                                    
                                                                                                    
                                                                                                    
                                                                                                    
                                                                                                    
                                                                                                    
                                                                                                    
                                                                                                    
                                                                                                    
                                                                                                    
                                                                                                    
                                                                                                    
                                                                                                    
                                                                                                    
                                                                                                    
                                                                                                    
                           
<?xpacket end="w"?></metadata>
<defs>
    <style>
      .cls-1 {
        fill: #e92d74;
        fill-rule: evenodd;
      }
    </style>
  </defs>
  <path id="bus-shipping" class="cls-1" d="M548.57,779.565l-10.091-11.3a1.75,1.75,0,0,0-1.3-.581h-8.4V760.7a1.718,1.718,0,0,0-1.734-1.7H491.245a1.718,1.718,0,0,0-1.733,1.7v2.294H472.844a1.7,1.7,0,1,0,0,3.4h16.668v22.042H479.479a1.7,1.7,0,1,0,0,3.4h10.033v1.728a1.717,1.717,0,0,0,1.733,1.7h3.617a6.589,6.589,0,0,0,12.644,0H530.63a6.588,6.588,0,0,0,12.643,0h3.994a1.717,1.717,0,0,0,1.733-1.7V780.685A1.681,1.681,0,0,0,548.57,779.565ZM501.184,796.6a3.032,3.032,0,1,1,3.089-3.032A3.065,3.065,0,0,1,501.184,796.6Zm6.321-4.732a6.588,6.588,0,0,0-12.643,0h-1.884V762.4H525.3v29.466h-17.8Zm29.446,4.732a3.032,3.032,0,1,1,3.09-3.032A3.064,3.064,0,0,1,536.951,796.6Zm8.583-4.732h-2.261a6.588,6.588,0,0,0-12.643,0h-1.859V771.082h7.618l9.145,10.242v10.542h0Zm-71.765-3.429h-0.925a1.7,1.7,0,1,0,0,3.4h0.925A1.7,1.7,0,1,0,473.769,788.437Zm8.537-12.893H463.733a1.7,1.7,0,1,0,0,3.4h18.573A1.7,1.7,0,1,0,482.306,775.544Z" transform="translate(-460.5 -734.5)"/>
</svg>
