<svg xmlns="http://www.w3.org/2000/svg" width="90" height="90" viewBox="0 0 90 90">
  <metadata><?xpacket begin="﻿" id="W5M0MpCehiHzreSzNTczkc9d"?>
<x:xmpmeta xmlns:x="adobe:ns:meta/" x:xmptk="Adobe XMP Core 5.6-c138 79.159824, 2016/09/14-01:09:01        ">
   <rdf:RDF xmlns:rdf="http://www.w3.org/1999/02/22-rdf-syntax-ns#">
      <rdf:Description rdf:about=""/>
   </rdf:RDF>
</x:xmpmeta>
                                                                                                    
                                                                                                    
                                                                                                    
                                                                                                    
                                                                                                    
                                                                                                    
                                                                                                    
                                                                                                    
                                                                                                    
                                                                                                    
                                                                                                    
                                                                                                    
                                                                                                    
                                                                                                    
                                                                                                    
                                                                                                    
                                                                                                    
                                                                                                    
                                                                                                    
                                                                                                    
                           
<?xpacket end="w"?></metadata>
<defs>
    <style>
      .cls-1 {
        fill: #e92d74;
        fill-rule: evenodd;
      }
    </style>
  </defs>
  <path id="credits" class="cls-1" d="M1143.29,760h-45.83a4.677,4.677,0,0,0-4.71,4.636v1.676h-13.04a4.676,4.676,0,0,0-4.71,4.636v24.416a4.677,4.677,0,0,0,4.71,4.636h45.83a4.677,4.677,0,0,0,4.71-4.636v-1.675h13.04a4.678,4.678,0,0,0,4.71-4.637V764.635A4.677,4.677,0,0,0,1143.29,760Zm-15.94,35.364a1.793,1.793,0,0,1-1.81,1.774h-45.83a1.791,1.791,0,0,1-1.8-1.774V770.947a1.79,1.79,0,0,1,1.8-1.773h45.83a1.784,1.784,0,0,1,1.8,1.773v24.416h0.01Zm17.74-6.312a1.791,1.791,0,0,1-1.8,1.773h-13.04v-4.036h14.84v2.263Zm0-5.126h-14.84v-4.182h14.84v4.182Zm0-7.045h-14.84v-5.933a4.676,4.676,0,0,0-4.71-4.636h-29.89v-1.676a1.792,1.792,0,0,1,1.81-1.773h45.83a1.791,1.791,0,0,1,1.8,1.773V776.88h0Zm-56.73,13.944h-5.87a1.432,1.432,0,1,0,0,2.864h5.87A1.432,1.432,0,1,0,1088.36,790.824Zm10.91,0h-5.86a1.432,1.432,0,1,0,0,2.864h5.86A1.432,1.432,0,1,0,1099.27,790.824Zm10.98,0h-5.87a1.432,1.432,0,1,0,0,2.864h5.87A1.432,1.432,0,1,0,1110.25,790.824Zm12.21,0h-0.22a1.432,1.432,0,1,0,0,2.864h0.22A1.432,1.432,0,1,0,1122.46,790.824Zm-4.54,0h-2.62a1.432,1.432,0,1,0,0,2.864h2.62A1.432,1.432,0,1,0,1117.92,790.824Zm-30.91-18.789h-2.76a3.338,3.338,0,0,0-3.36,3.3v2.715a3.337,3.337,0,0,0,3.36,3.3h2.76a3.328,3.328,0,0,0,3.35-3.3v-2.715A3.329,3.329,0,0,0,1087.01,772.035Zm0.44,6.019a0.442,0.442,0,0,1-.44.44h-2.76a0.444,0.444,0,0,1-.45-0.44v-2.716a0.444,0.444,0,0,1,.45-0.44h2.76a0.443,0.443,0,0,1,.44.44v2.716Z" transform="translate(-1066.5 -735)"/>
</svg>
