<svg xmlns="http://www.w3.org/2000/svg" width="90" height="90" viewBox="0 0 90 90">
  <metadata><?xpacket begin="﻿" id="W5M0MpCehiHzreSzNTczkc9d"?>
<x:xmpmeta xmlns:x="adobe:ns:meta/" x:xmptk="Adobe XMP Core 5.6-c138 79.159824, 2016/09/14-01:09:01        ">
   <rdf:RDF xmlns:rdf="http://www.w3.org/1999/02/22-rdf-syntax-ns#">
      <rdf:Description rdf:about=""/>
   </rdf:RDF>
</x:xmpmeta>
                                                                                                    
                                                                                                    
                                                                                                    
                                                                                                    
                                                                                                    
                                                                                                    
                                                                                                    
                                                                                                    
                                                                                                    
                                                                                                    
                                                                                                    
                                                                                                    
                                                                                                    
                                                                                                    
                                                                                                    
                                                                                                    
                                                                                                    
                                                                                                    
                                                                                                    
                                                                                                    
                           
<?xpacket end="w"?></metadata>
<defs>
    <style>
      .cls-1 {
        fill: #e92d74;
        fill-rule: evenodd;
      }
    </style>
  </defs>
  <path id="arrows" class="cls-1" d="M840.474,764.409l-22.485-17.135a1.365,1.365,0,0,0-1.421-.14,1.333,1.333,0,0,0-.755,1.2V759.27H782.351A1.343,1.343,0,0,0,781,760.605v9.722a1.343,1.343,0,0,0,1.351,1.334h33.462V782.6a1.334,1.334,0,0,0,.755,1.2,1.364,1.364,0,0,0,1.421-.141l22.485-17.134A1.325,1.325,0,0,0,840.474,764.409Zm-21.959,15.476v-9.558a1.343,1.343,0,0,0-1.351-1.335H783.7v-7.053h33.463a1.343,1.343,0,0,0,1.351-1.335v-9.557l18.922,14.419Zm21.134,9.45H806.186V778.4a1.331,1.331,0,0,0-.754-1.2,1.365,1.365,0,0,0-1.421.14l-22.485,17.134a1.325,1.325,0,0,0,0,2.114l22.485,17.134a1.364,1.364,0,0,0,1.421.141,1.332,1.332,0,0,0,.754-1.2V801.727h33.463A1.344,1.344,0,0,0,841,800.391v-9.722A1.342,1.342,0,0,0,839.649,789.335Zm-1.35,9.722H804.836a1.343,1.343,0,0,0-1.351,1.334v9.559l-18.922-14.42,18.922-14.419v9.558A1.343,1.343,0,0,0,804.836,792H838.3v7.053h0Zm-37.212,3.448-0.3-.232a1.363,1.363,0,0,0-1.895.239,1.324,1.324,0,0,0,.241,1.873l0.3,0.231a1.362,1.362,0,0,0,1.895-.239A1.324,1.324,0,0,0,801.087,802.505Zm-3.784-2.894-5.6-4.285a1.362,1.362,0,0,0-1.895.237,1.327,1.327,0,0,0,.241,1.874l5.6,4.284a1.359,1.359,0,0,0,1.894-.238A1.323,1.323,0,0,0,797.3,799.611Z" transform="translate(-766 -735.5)"/>
</svg>
